<svg width="130" height="60.147" fill="none" xmlns="http://www.w3.org/2000/svg"><path d="M4.95 0H0v35.79h4.95V22.51c0-2.24.56-4.02 1.68-5.26 1.12-1.25 2.65-1.9 4.54-1.9 1.63 0 2.99.6 4.08 1.75 1.1 1.17 1.66 2.64 1.66 4.41v14.31h4.98V21.51c0-3.29-.9-5.89-2.7-7.83-1.8-1.95-4.15-2.93-7.02-2.93-.83 0-1.65.1-2.46.33-.82.22-1.48.47-2.01.75-.54.27-1.05.57-1.51.92-.46.35-.78.6-.92.75-.15.15-.27.25-.32.33V0Z" fill="#F0145A"/><path d="M27.86 0h5.11v35.76h-5.11V0Z" fill="#323264" fill-rule="evenodd"/><path d="m63.11 25.29.25-2.56c0-3.42-1.12-6.28-3.42-8.58s-5.16-3.42-8.59-3.42c-3.42 0-6.38 1.22-8.84 3.67-2.45 2.46-3.68 5.37-3.68 8.84 0 3.58 1.28 6.65 3.79 9.2 2.5 2.56 5.51 3.83 8.99 3.83 1.33 0 2.55-.2 3.78-.56 1.23-.41 2.25-.82 2.96-1.22.77-.46 1.54-.97 2.2-1.54.67-.56 1.13-.97 1.33-1.22.2-.26.36-.41.46-.57l-3.32-3.32-.77.97c-.51.62-1.38 1.23-2.6 1.89a8.52 8.52 0 0 1-4.04.98c-1.99 0-3.68-.62-5.11-1.9-1.43-1.27-2.3-2.75-2.56-4.49h19.17ZM51.35 15.07c1.89 0 3.43.56 4.7 1.63 1.23 1.13 2 2.51 2.3 4.24h-14.2c.46-1.73 1.28-3.11 2.55-4.24 1.23-1.07 2.81-1.63 4.65-1.63ZM86.94 34.28c0 2.25-.67 4.09-2.05 5.52-1.32 1.38-3.01 2.09-5.11 2.09-.92 0-1.84-.15-2.7-.4-.87-.26-1.54-.57-2.1-.92a11.8 11.8 0 0 1-1.58-1.18l-.92-.92c-.16-.15-.26-.31-.36-.41l-3.32 3.32.41.51c.25.36.71.82 1.33 1.33.61.46 1.32.97 2.14 1.49.82.46 1.84.86 3.12 1.22s2.6.56 3.98.56c3.48 0 6.34-1.17 8.74-3.52 2.35-2.4 3.53-5.26 3.53-8.74V11.24h-5.11v2.55l-.87-.77c-.56-.51-1.43-1.02-2.66-1.53-1.22-.51-2.55-.76-3.88-.76-3.12 0-5.78 1.17-8.07 3.57-2.3 2.4-3.43 5.26-3.43 8.69 0 3.42 1.13 6.28 3.43 8.69 2.29 2.4 4.95 3.57 8.07 3.57.87 0 1.68-.1 2.55-.3.82-.26 1.49-.52 2.05-.77.56-.26 1.07-.56 1.53-.92.46-.36.82-.61.92-.72l.36-.35v2.09Zm-13.8-11.29c0-2.15.67-3.94 2.05-5.42 1.37-1.48 3.01-2.25 4.85-2.25 1.84 0 3.47.77 4.85 2.25 1.33 1.48 2.05 3.27 2.05 5.42 0 2.14-.72 3.93-2.05 5.42-1.38 1.48-3.01 2.24-4.85 2.24-1.84 0-3.48-.76-4.85-2.24-1.38-1.49-2.05-3.28-2.05-5.42ZM118.72 35.76V19.92c0-2.6-.97-4.8-2.86-6.54-1.89-1.79-4.35-2.65-7.36-2.65-1.18 0-2.35.15-3.47.45-1.13.36-2.05.72-2.71 1.13-.67.41-1.33.87-1.94 1.43-.62.51-.98.87-1.18 1.07-.15.21-.31.36-.41.51l3.32 3.33.67-.87c.41-.57 1.12-1.08 2.19-1.64 1.08-.56 2.25-.82 3.53-.82 1.48 0 2.71.46 3.68 1.33.97.87 1.43 2 1.43 3.27l-8.94 1.54c-2.2.35-3.99 1.22-5.21 2.6-1.28 1.38-1.95 3.07-1.95 5.06 0 1.89.82 3.53 2.46 4.96 1.68 1.48 3.73 2.19 6.23 2.19.87 0 1.69-.1 2.5-.35.87-.21 1.54-.46 2.1-.72.56-.25 1.07-.56 1.53-.92.46-.36.77-.61.97-.71.16-.16.26-.31.31-.36v2.55h5.11Zm-11.75-4.08c-1.33 0-2.4-.31-3.17-.92-.82-.62-1.18-1.33-1.18-2.15 0-.87.26-1.64.82-2.2.56-.56 1.33-.97 2.25-1.12l7.92-1.28v.51c0 2.3-.56 4.04-1.74 5.32-1.17 1.22-2.81 1.84-4.9 1.84Z" fill="#323264"/><path d="M124.89 0H130v35.76h-5.11V0ZM50.52 60.14c-.71 0-1.34-.15-1.92-.45-.56-.31-1.01-.74-1.34-1.28q-.11-.19-.2-.39-.28-.66-.28-1.45 0-.82.3-1.49.08-.18.18-.35c.33-.54.78-.97 1.34-1.27.58-.31 1.22-.46 1.93-.46.6 0 1.14.1 1.62.31.48.21.89.51 1.22.91l-1.03.95q-.38-.45-.86-.65-.4-.16-.87-.16c-.43 0-.81.09-1.15.28-.33.19-.6.45-.79.78-.18.34-.27.72-.27 1.15 0 .43.09.81.27 1.14.19.34.46.6.79.79.34.19.72.28 1.15.28q.46 0 .85-.16.49-.2.88-.66l1.03.95c-.33.4-.74.71-1.22.92-.49.21-1.03.31-1.63.31Zm12.07 0c-.72 0-1.37-.15-1.95-.46-.57-.31-1.02-.74-1.35-1.28-.32-.54-.48-1.15-.48-1.83 0-.68.16-1.29.48-1.83.33-.54.78-.97 1.35-1.28.58-.31 1.23-.46 1.95-.46s1.36.15 1.93.46c.58.31 1.03.74 1.36 1.28.32.54.49 1.15.49 1.83 0 .68-.17 1.29-.49 1.83-.33.54-.78.97-1.36 1.28-.57.31-1.21.46-1.93.46ZM0 53.11h1.59v5.61h3.47v1.3H0v-6.91Zm15.5 5.43h-3.21l-.61 1.48h-1.64l3.08-6.91h1.58l3.09 6.91h-1.68l-.61-1.48Zm18.01-5.43-2.26 6.91h-1.72l-1.52-4.68-1.57 4.68h-1.71l-2.27-6.91h1.66l1.56 4.86 1.63-4.86h1.48l1.58 4.9 1.61-4.9h1.53Zm45.28 6.91-.01-4.14-2.03 3.41h-.72l-2.02-3.32v4.05h-1.5v-6.91h1.32l2.59 4.3 2.54-4.3h1.32l.01 6.91h-1.5Zm11.07-6.91c.61 0 1.14.11 1.59.31.45.2.8.49 1.05.87.24.37.36.82.36 1.33 0 .51-.12.95-.36 1.33-.25.38-.6.67-1.05.87-.45.2-.98.3-1.59.3h-1.39v1.9h-1.6v-6.91h2.99Zm13.28 5.43h-3.21l-.61 1.48h-1.64l3.08-6.91h1.58l3.09 6.91h-1.67l-.62-1.48Zm14.28-5.43v6.91h-1.31l-3.44-4.19v4.19h-1.58v-6.91h1.32l3.43 4.2v-4.2h1.58Zm9.89 4.47v2.44h-1.6v-2.46l-2.67-4.45h1.69l1.85 3.07 1.84-3.07H130l-2.69 4.47Zm-64.72 1.2c.41 0 .77-.09 1.1-.28q.24-.13.43-.32.2-.2.34-.47c.19-.33.29-.71.29-1.14 0-.43-.1-.81-.29-1.15q-.15-.27-.37-.48-.17-.17-.4-.3c-.33-.19-.69-.28-1.1-.28-.41 0-.78.09-1.11.28-.33.19-.59.45-.78.78l-.04.08q-.23.47-.23 1.07 0 .59.23 1.07h.01q.01.04.03.07c.19.34.45.6.78.79.33.19.7.28 1.11.28Zm27.18-1.96c.48 0 .85-.11 1.1-.31q.11-.09.18-.2.19-.28.19-.69 0-.43-.2-.71-.08-.1-.17-.18c-.25-.21-.62-.31-1.1-.31h-1.3v2.4h1.3Zm-74.78.51-1.09-2.65-1.1 2.65h2.19Zm87.65 0-1.1-2.65-1.09 2.65h2.19Z" fill="#323264" fill-rule="evenodd"/></svg>