<svg aria-hidden="true" style="position:absolute;width:0;height:0;overflow:hidden" xmlns="http://www.w3.org/2000/svg"><defs><symbol id="support-icon" viewBox="0 0 32 32"><path fill="#fff" style="fill:var(--color1, #fff)" d="M8.348.174h15.304a8.174 8.174 0 0 1 8.174 8.174v15.304a8.174 8.174 0 0 1-8.174 8.174H8.348a8.174 8.174 0 0 1-8.174-8.174V8.348A8.174 8.174 0 0 1 8.348.174z"/><path d="M23.461 17.068v6.017c0 1.075-.845 1.958-1.875 1.958H10.424c-1.033 0-1.875-.883-1.875-1.958v-6.017h5.795v2.612l1.659 1.092 1.659-1.092v-2.612h5.798z"/><path d="M14.925 17.068v2.299l1.078.71 1.078-.71v-2.299h-2.157zM9.068 10.136h13.875c.654 0 1.19.595 1.19 1.318v3.569c0 .723-.536 1.318-1.19 1.318H9.068c-.654 0-1.19-.595-1.19-1.318v-3.569c0-.723.536-1.318 1.19-1.318zM13.117 6.939h5.777c.536 0 .974.438.974.977v1.52H18.63v-.897a.442.442 0 0 0-.438-.442H13.82a.443.443 0 0 0-.442.442v.897H12.14v-1.52c0-.539.438-.977.977-.977z"/></symbol><symbol id="structuring-icon" viewBox="0 0 32 32"><path fill="#fff" style="fill:var(--color1, #fff)" d="M8.348.174h15.304a8.174 8.174 0 0 1 8.174 8.174v15.304a8.174 8.174 0 0 1-8.174 8.174H8.348a8.174 8.174 0 0 1-8.174-8.174V8.348A8.174 8.174 0 0 1 8.348.174z"/><path d="M25.92 17.99a1.954 1.954 0 0 0-2.205.5l-.424-.177-1.21-.501A6.238 6.238 0 0 0 22.345 16c0-.633-.09-1.242-.264-1.816l1.21-.501.424-.177a1.954 1.954 0 0 0 2.205.5 1.958 1.958 0 1 0-1.496-3.617 1.966 1.966 0 0 0-1.207 1.913l-.424.177-1.21.501a6.382 6.382 0 0 0-2.567-2.567l.501-1.21.177-.424c.035 0 .07.003.104.003a1.96 1.96 0 0 0 1.809-1.21 1.963 1.963 0 0 0-1.061-2.557 1.981 1.981 0 0 0-.748-.146 1.955 1.955 0 0 0-1.308 3.409l-.177.424-.501 1.21A6.376 6.376 0 0 0 16 9.651c-.633 0-1.242.09-1.816.261l-.501-1.21-.177-.424a1.955 1.955 0 0 0-1.308-3.409c-.257 0-.508.049-.748.146a1.958 1.958 0 0 0 .748 3.767c.035 0 .07 0 .104-.003l.177.424.501 1.21a6.382 6.382 0 0 0-2.567 2.567l-1.21-.501-.424-.177a1.966 1.966 0 0 0-1.955-2.063 1.96 1.96 0 0 0-1.809 1.21 1.963 1.963 0 0 0 1.809 2.707c.567 0 1.092-.243 1.457-.65l.424.177 1.21.501A6.246 6.246 0 0 0 9.651 16c0 .63.09 1.238.264 1.812l-1.21.501-.424.177a1.954 1.954 0 0 0-2.205-.5 1.958 1.958 0 1 0 1.496 3.617 1.966 1.966 0 0 0 1.207-1.913l.424-.177 1.21-.501a6.382 6.382 0 0 0 2.567 2.567l-.501 1.21-.177.424c-.035 0-.07-.003-.104-.003a1.96 1.96 0 0 0-1.809 1.21 1.963 1.963 0 0 0 1.809 2.707 1.96 1.96 0 0 0 1.809-1.21 1.963 1.963 0 0 0-.501-2.202l.177-.424.501-1.21a6.377 6.377 0 0 0 3.628 0l.501 1.21.177.424a1.958 1.958 0 0 0 2.056 3.262 1.958 1.958 0 0 0-.748-3.767c-.035 0-.07.003-.104.003l-.177-.424-.501-1.21a6.382 6.382 0 0 0 2.567-2.567l1.635.678a1.966 1.966 0 0 0 1.955 2.063 1.96 1.96 0 0 0 1.809-1.21 1.963 1.963 0 0 0-1.061-2.557zM16 21.043A5.048 5.048 0 0 1 10.957 16 5.046 5.046 0 0 1 16 10.957 5.049 5.049 0 0 1 21.043 16 5.05 5.05 0 0 1 16 21.043z"/><path d="M25.92 17.99a1.954 1.954 0 0 0-2.205.5l-.424-.177-1.21-.501A6.238 6.238 0 0 0 22.345 16c0-.633-.09-1.242-.264-1.816l1.21-.501.424-.177a1.954 1.954 0 0 0 2.205.5 1.958 1.958 0 1 0-1.496-3.617 1.966 1.966 0 0 0-1.207 1.913l-.424.177-1.21.501a6.382 6.382 0 0 0-2.567-2.567l.501-1.21.177-.424c.035 0 .07.003.104.003a1.96 1.96 0 0 0 1.809-1.21 1.963 1.963 0 0 0-1.061-2.557 1.981 1.981 0 0 0-.748-.146 1.955 1.955 0 0 0-1.308 3.409l-.177.424-.501 1.21A6.376 6.376 0 0 0 16 9.651c-.633 0-1.242.09-1.816.261l-.501-1.21-.177-.424a1.955 1.955 0 0 0-1.308-3.409c-.257 0-.508.049-.748.146a1.958 1.958 0 0 0 .748 3.767c.035 0 .07 0 .104-.003l.177.424.501 1.21a6.382 6.382 0 0 0-2.567 2.567l-1.21-.501-.424-.177a1.966 1.966 0 0 0-1.955-2.063 1.96 1.96 0 0 0-1.809 1.21 1.963 1.963 0 0 0 1.809 2.707c.567 0 1.092-.243 1.457-.65l.424.177 1.21.501A6.246 6.246 0 0 0 9.651 16c0 .63.09 1.238.264 1.812l-1.21.501-.424.177a1.954 1.954 0 0 0-2.205-.5 1.958 1.958 0 1 0 1.496 3.617 1.966 1.966 0 0 0 1.207-1.913l.424-.177 1.21-.501a6.382 6.382 0 0 0 2.567 2.567l-.501 1.21-.177.424c-.035 0-.07-.003-.104-.003a1.96 1.96 0 0 0-1.809 1.21 1.963 1.963 0 0 0 1.809 2.707 1.96 1.96 0 0 0 1.809-1.21 1.963 1.963 0 0 0-.501-2.202l.177-.424.501-1.21a6.377 6.377 0 0 0 3.628 0l.501 1.21.177.424a1.958 1.958 0 0 0 2.056 3.262 1.958 1.958 0 0 0-.748-3.767c-.035 0-.07.003-.104.003l-.177-.424-.501-1.21a6.382 6.382 0 0 0 2.567-2.567l1.635.678a1.966 1.966 0 0 0 1.955 2.063 1.96 1.96 0 0 0 1.809-1.21 1.963 1.963 0 0 0-1.061-2.557zM16 21.043A5.048 5.048 0 0 1 10.957 16 5.046 5.046 0 0 1 16 10.957 5.049 5.049 0 0 1 21.043 16 5.05 5.05 0 0 1 16 21.043z"/><path d="M16 12.261A3.742 3.742 0 0 0 12.261 16 3.745 3.745 0 0 0 16 19.739 3.747 3.747 0 0 0 19.739 16 3.744 3.744 0 0 0 16 12.261zm.65 5.172h-1.304v-2.87h1.304v2.87z"/><path d="M16 12.261A3.742 3.742 0 0 0 12.261 16 3.745 3.745 0 0 0 16 19.739 3.747 3.747 0 0 0 19.739 16 3.744 3.744 0 0 0 16 12.261zm.65 5.172h-1.304v-2.87h1.304v2.87z"/></symbol><symbol id="building-icon" viewBox="0 0 32 32"><path fill="#fff" style="fill:var(--color1, #fff)" d="M8.348.174h15.304a8.174 8.174 0 0 1 8.174 8.174v15.304a8.174 8.174 0 0 1-8.174 8.174H8.348a8.174 8.174 0 0 1-8.174-8.174V8.348A8.174 8.174 0 0 1 8.348.174z"/><path d="M12.87 24.348h6.609v2.087H12.87v-2.087z"/><path d="M12.87 24.348h6.609v2.087H12.87v-2.087zM5.471 10.393l4.675-4.671 1.228 1.228-4.671 4.675-1.231-1.231z"/><path d="m5.471 10.393 4.675-4.671 1.228 1.228-4.671 4.675-1.231-1.231zM20.72 6.904l1.231-1.228 4.671 4.671-1.228 1.228-4.675-4.671z"/><path d="m20.72 6.904 1.231-1.228 4.671 4.671-1.228 1.228-4.675-4.671zM20.365 8.243l-.936-.038a1.747 1.747 0 0 0-1.488.497l-1.917 1.917-2-2.003c-.174-.17-.39-.289-.626-.344s-.483-.045-.717.028a1.253 1.253 0 0 1-1.255-.313l-.296-.299-3.69 3.69.602.602-.042.936c-.038.271-.01.546.073.803.087.261.233.494.428.685l3.343 3.346c.045-.442.254-.845.588-1.134l-1.043-1.043.247-.243 1.089 1.085c.153-.087.32-.15.494-.184v-1.287l-.598-.598.247-.247.351.355V12.59a1.266 1.266 0 0 1 .306-.838c.202-.23.483-.379.786-.421.115-.01.233-.007.344.017l-.428-.428.247-.247.626.626c.111-.216.282-.393.49-.511a1.24 1.24 0 0 1 .692-.153c.292.031.56.167.762.379s.323.487.344.779c.195-.094.414-.136.633-.115a1.258 1.258 0 0 1 1.11 1.273v1.193c.317.063.609.216.842.438.237.226.403.508.487.821l.97-.97.243.247-1.151 1.151V17c.313-.031.605-.17.828-.39l2.379-2.379a1.348 1.348 0 0 0 .316-1.343 1.254 1.254 0 0 1 .313-1.255l.299-.299-3.69-3.687-.602.598z"/><path d="m20.365 8.243-.936-.038a1.747 1.747 0 0 0-1.488.497l-1.917 1.917-2-2.003c-.174-.17-.39-.289-.626-.344s-.483-.045-.717.028a1.253 1.253 0 0 1-1.255-.313l-.296-.299-3.69 3.69.602.602-.042.936c-.038.271-.01.546.073.803.087.261.233.494.428.685l3.343 3.346c.045-.442.254-.845.588-1.134l-1.043-1.043.247-.243 1.089 1.085c.153-.087.32-.15.494-.184v-1.287l-.598-.598.247-.247.351.355V12.59a1.266 1.266 0 0 1 .306-.838c.202-.23.483-.379.786-.421.115-.01.233-.007.344.017l-.428-.428.247-.247.626.626c.111-.216.282-.393.49-.511a1.24 1.24 0 0 1 .692-.153c.292.031.56.167.762.379s.323.487.344.779c.195-.094.414-.136.633-.115a1.258 1.258 0 0 1 1.11 1.273v1.193c.317.063.609.216.842.438.237.226.403.508.487.821l.97-.97.243.247-1.151 1.151V17c.313-.031.605-.17.828-.39l2.379-2.379a1.348 1.348 0 0 0 .316-1.343 1.254 1.254 0 0 1 .313-1.255l.299-.299-3.69-3.687-.602.598z"/><path d="M15.263 12.414c-.028-.23-.143-.435-.32-.577s-.403-.209-.63-.184a.878.878 0 0 0-.563.31.877.877 0 0 0-.216.605v3.948a1.398 1.398 0 0 0-1.391 1.391v3.367a1.33 1.33 0 0 0 .723 1.172c.202.104.369.268.487.463s.181.421.181.647v.421h5.217v-.852l.689-.633a1.74 1.74 0 0 0 .702-1.405v-5.266a1.396 1.396 0 0 0-1.391-1.391v-1.503c.003-.226-.073-.445-.219-.616s-.351-.282-.574-.31a.852.852 0 0 0-.609.177.871.871 0 0 0-.323.55h.16v5.37h-.348v-5.37h.174v-.845c.003-.226-.073-.445-.219-.616s-.351-.282-.574-.31a.772.772 0 0 0-.355.042c-.115.038-.219.101-.31.181s-.16.181-.209.292a.852.852 0 0 0-.073.348v.595h.174v5.37h-.348v-5.37h.163zm-1.59 7.075h-.348v-2.783h.348v2.783zm4.904-4.95h.348v3.631h-.348v-3.631z"/><path d="M15.263 12.414c-.028-.23-.143-.435-.32-.577s-.403-.209-.63-.184a.878.878 0 0 0-.563.31.877.877 0 0 0-.216.605v3.948a1.398 1.398 0 0 0-1.391 1.391v3.367a1.33 1.33 0 0 0 .723 1.172c.202.104.369.268.487.463s.181.421.181.647v.421h5.217v-.852l.689-.633a1.74 1.74 0 0 0 .702-1.405v-5.266a1.396 1.396 0 0 0-1.391-1.391v-1.503c.003-.226-.073-.445-.219-.616s-.351-.282-.574-.31a.852.852 0 0 0-.609.177.871.871 0 0 0-.323.55h.16v5.37h-.348v-5.37h.174v-.845c.003-.226-.073-.445-.219-.616s-.351-.282-.574-.31a.772.772 0 0 0-.355.042c-.115.038-.219.101-.31.181s-.16.181-.209.292a.852.852 0 0 0-.073.348v.595h.174v5.37h-.348v-5.37h.163zm-1.59 7.075h-.348v-2.783h.348v2.783zm4.904-4.95h.348v3.631h-.348v-3.631z"/></symbol><symbol id="protection-icon" viewBox="0 0 32 32"><path fill="#fff" style="fill:var(--color1, #fff)" d="M8.348.174h15.304a8.174 8.174 0 0 1 8.174 8.174v15.304a8.174 8.174 0 0 1-8.174 8.174H8.348a8.174 8.174 0 0 1-8.174-8.174V8.348A8.174 8.174 0 0 1 8.348.174z"/><path d="M19.21 17.979a4.92 4.92 0 0 1 2.337.591c.129.07.25.153.369.233 1.172-2.289 1.788-4.71 1.788-7.071 0-.132 0-.268-.003-.403a.431.431 0 0 0-.341-.403c-2.584-.567-4.925-1.965-6.765-4.045l-.275-.313a.425.425 0 0 0-.32-.146c-.136-.017-.237.049-.317.136l-.421.463c-1.746 1.923-3.948 3.252-6.362 3.84l-.278.07a.424.424 0 0 0-.327.403c-.153 6.017 3.402 10.344 4.932 11.93.417.424.88.849 1.318 1.2a5.011 5.011 0 0 1-.261-1.558 4.93 4.93 0 0 1 4.925-4.925z"/><path d="M21.141 19.322a4.073 4.073 0 0 0-6 3.579c0 .758.205 1.499.602 2.132a4.04 4.04 0 0 0 3.468 1.934 4.073 4.073 0 0 0 4.066-4.066 4.06 4.06 0 0 0-2.136-3.579zm.149 3.04-3.179 2.477-1.085-1.701c-.129-.198-.07-.463.129-.591s.466-.07.591.129l.581.908 2.438-1.899c.188-.143.456-.111.602.077s.111.456-.077.602z"/></symbol><symbol id="judicial-icon" viewBox="0 0 32 32"><path fill="#fff" style="fill:var(--color1, #fff)" d="M8.348.174h15.304a8.174 8.174 0 0 1 8.174 8.174v15.304a8.174 8.174 0 0 1-8.174 8.174H8.348a8.174 8.174 0 0 1-8.174-8.174V8.348A8.174 8.174 0 0 1 8.348.174z"/><path d="M18.904 11.962a.653.653 0 0 0 .922 0l.904-.908a.654.654 0 0 0 0-.925l-2.289-2.285a.648.648 0 0 0-.922 0l-.908.904a.653.653 0 0 0 0 .922l2.292 2.292zM13.482 17.482a.648.648 0 0 0 .922 0l.908-.904a.653.653 0 0 0 0-.922l-2.292-2.292a.648.648 0 0 0-.918 0l-.908.908a.653.653 0 0 0 0 .922l2.289 2.289zM23.875 17.701l-.918-.922a.653.653 0 0 0-.922 0l-.403.403-3.899-3.899.845-.845-2.341-2.341-1.92 1.92-.828.824 2.341 2.344.828-.824 3.896 3.896-.362.365a.648.648 0 0 0 0 .922l.918.918a.648.648 0 0 0 .922 0l1.843-1.84a.653.653 0 0 0 0-.922zM17.068 20.501a.757.757 0 0 0-.755-.758H10.41a.758.758 0 0 0-.755.758v1.224H7.999v2.57h10.626v-2.57h-1.558v-1.224z"/></symbol><symbol id="it-icon" viewBox="0 0 32 32"><path fill="#fff" style="fill:var(--color1, #fff)" d="M8.348.174h15.304a8.174 8.174 0 0 1 8.174 8.174v15.304a8.174 8.174 0 0 1-8.174 8.174H8.348a8.174 8.174 0 0 1-8.174-8.174V8.348A8.174 8.174 0 0 1 8.348.174z"/><path d="M13.123 14.65a.698.698 0 0 0 .696-.696v-2.713a2.2 2.2 0 0 1 4.4 0v2.713a.696.696 0 1 0 1.392 0v-2.713c0-1.979-1.61-3.59-3.593-3.59a3.594 3.594 0 0 0-3.59 3.59v2.713c0 .383.31.696.696.696z"/><path d="M24 13.089h-3.694v.866a1.39 1.39 0 1 1-2.782 0v-.866h-3.009v.866a1.39 1.39 0 1 1-2.782 0v-.866H8.001c-.195 0-.313.15-.268.337l2.435 9.91c.146.56.734 1.012 1.311 1.012h9.043c.574 0 1.162-.452 1.308-1.012l2.435-9.91c.045-.188-.073-.337-.264-.337z"/><path fill="#fff" style="fill:var(--color1, #fff)" d="M14.817 16.835a.486.486 0 1 1 .974 0v1.948a.487.487 0 1 1 .974 0v.581c.003-.264.219-.824.487-.824s.483.216.487.483c0 0 .014.365.045.386.077-.167.247-.626.442-.626.268 0 .487.216.487.487v2.435c0 .536-.438.97-.974.97h-1.631a1.96 1.96 0 0 1-1.377-.567l-.765-.772-1.096-.49c0-.463.365-.605.727-.605.317 0 .598.049 1.221.369v-3.774z"/></symbol><symbol id="dot" viewBox="0 0 32 32"><path d="M32 16c0 8.837-7.163 16-16 16S0 24.837 0 16 7.163 0 16 0s16 7.163 16 16z"/></symbol><symbol id="face-footer" viewBox="0 0 32 32"><path fill="#24a3ff" style="fill:var(--color4, #24a3ff)" d="M29.217 13.294C29.217 5.948 23.297 0 16 0 8.696 0 2.783 5.948 2.783 13.294c0 6.637 4.828 12.139 11.151 13.141v-9.294h-3.36v-3.847h3.36v-2.929c0-3.332 1.969-5.176 4.988-5.176 1.447 0 2.963.264 2.963.264v3.27h-1.67c-1.642 0-2.157 1.023-2.157 2.08v2.49h3.666l-.584 3.847h-3.082v9.294c6.323-1.002 11.158-6.504 11.158-13.141z"/></symbol><symbol id="face-header" viewBox="0 0 32 32"><path d="M32 16.093C32 7.2 24.827 0 16 0 7.16 0 0 7.2 0 16.093 0 24.12 5.84 30.786 13.493 32V20.747H9.426v-4.653h4.067v-3.547c0-4.04 2.387-6.267 6.04-6.267 1.76 0 3.587.32 3.587.32v3.96h-2.013c-2 0-2.613 1.24-2.613 2.507v3.027h4.44l-.707 4.653h-3.733V32c7.653-1.213 13.507-7.88 13.507-15.907z"/></symbol><symbol id="slash" viewBox="0 0 14 32"><path fill="#f0145a" style="fill:var(--color6, #f0145a)" d="M10.329 0h3.969L3.963 32H0L10.329 0z"/></symbol><symbol id="logo" viewBox="0 0 69 32"><path fill="#f0145a" style="fill:var(--color6, #f0145a)" d="M2.634 0H0v19.041h2.634v-7.065c0-1.192.298-2.139.894-2.798.596-.665 1.41-1.011 2.415-1.011a2.88 2.88 0 0 1 2.171.931c.585.622.883 1.405.883 2.346v7.613h2.649v-7.613c0-1.75-.479-3.134-1.436-4.166-.958-1.037-2.208-1.559-3.735-1.559-.442 0-.878.053-1.309.176-.436.117-.787.25-1.069.399-.287.144-.559.303-.803.489s-.415.319-.489.399c-.08.08-.144.133-.17.176V0z"/><path fill="#323264" style="fill:var(--color7, #323264)" d="M14.822 0h2.719v19.025h-2.719V0zM33.576 13.455l.133-1.362c0-1.82-.596-3.341-1.82-4.565s-2.745-1.82-4.57-1.82c-1.82 0-3.394.649-4.703 1.953-1.303 1.309-1.958 2.857-1.958 4.703 0 1.905.681 3.538 2.016 4.895 1.33 1.362 2.931 2.038 4.783 2.038a7 7 0 0 0 2.011-.298c.654-.218 1.197-.436 1.575-.649.41-.245.819-.516 1.17-.819.356-.298.601-.516.708-.649.106-.138.192-.218.245-.303L31.4 14.813l-.41.516c-.271.33-.734.654-1.383 1.006a4.539 4.539 0 0 1-2.149.521c-1.059 0-1.958-.33-2.719-1.011-.761-.676-1.224-1.463-1.362-2.389h10.199zM27.32 8.018c1.006 0 1.825.298 2.501.867a3.851 3.851 0 0 1 1.224 2.256H23.49c.245-.92.681-1.655 1.357-2.256.654-.569 1.495-.867 2.474-.867zM46.255 18.238c0 1.197-.356 2.176-1.091 2.937-.702.734-1.601 1.112-2.719 1.112-.489 0-.979-.08-1.436-.213a4.491 4.491 0 0 1-1.117-.489 6.34 6.34 0 0 1-.841-.628l-.489-.489c-.085-.08-.138-.165-.192-.218l-1.766 1.766.218.271c.133.192.378.436.708.708.325.245.702.516 1.139.793.436.245.979.458 1.66.649s1.383.298 2.117.298c1.851 0 3.373-.622 4.65-1.873 1.25-1.277 1.878-2.798 1.878-4.65V5.981h-2.719v1.357l-.463-.41c-.298-.271-.761-.543-1.415-.814a5.373 5.373 0 0 0-2.064-.404c-1.66 0-3.075.622-4.293 1.899-1.224 1.277-1.825 2.798-1.825 4.623 0 1.82.601 3.341 1.825 4.623 1.218 1.277 2.634 1.899 4.293 1.899.463 0 .894-.053 1.357-.16.436-.138.793-.277 1.091-.41.298-.138.569-.298.814-.489s.436-.325.489-.383l.192-.186v1.112zm-7.342-6.007c0-1.144.356-2.096 1.091-2.884.729-.787 1.601-1.197 2.58-1.197s1.846.41 2.58 1.197c.708.787 1.091 1.74 1.091 2.884 0 1.139-.383 2.091-1.091 2.884-.734.787-1.601 1.192-2.58 1.192s-1.851-.404-2.58-1.192c-.734-.793-1.091-1.745-1.091-2.884zM63.163 19.025v-8.427c0-1.383-.516-2.554-1.522-3.479-1.006-.952-2.314-1.41-3.916-1.41-.628 0-1.25.08-1.846.239-.601.192-1.091.383-1.442.601a6.588 6.588 0 0 0-1.032.761c-.33.271-.521.463-.628.569-.08.112-.165.192-.218.271l1.766 1.772.356-.463c.218-.303.596-.575 1.165-.873.575-.298 1.197-.436 1.878-.436.787 0 1.442.245 1.958.708s.761 1.064.761 1.74l-4.756.819c-1.17.186-2.123.649-2.772 1.383-.681.734-1.037 1.633-1.037 2.692 0 1.006.436 1.878 1.309 2.639.894.787 1.984 1.165 3.315 1.165a4.44 4.44 0 0 0 1.33-.186 5.913 5.913 0 0 0 1.117-.383c.298-.133.569-.298.814-.489s.41-.325.516-.378c.085-.085.138-.165.165-.192v1.357h2.719zm-6.252-2.17c-.708 0-1.277-.165-1.687-.489-.436-.33-.628-.708-.628-1.144 0-.463.138-.873.436-1.17s.708-.516 1.197-.596l4.214-.681v.271c0 1.224-.298 2.149-.926 2.83-.622.649-1.495.979-2.607.979zM66.445 0h2.719v19.025h-2.719V0zM26.878 31.996c-.378 0-.713-.08-1.021-.239a1.911 1.911 0 0 1-.713-.681q-.059-.101-.106-.207-.149-.351-.149-.771 0-.436.16-.793.043-.096.096-.186a1.86 1.86 0 0 1 .713-.676 2.137 2.137 0 0 1 1.027-.245c.319 0 .607.053.862.165s.474.271.649.484l-.548.505q-.202-.239-.458-.346-.213-.085-.463-.085c-.229 0-.431.048-.612.149a1.116 1.116 0 0 0-.42.415c-.096.181-.144.383-.144.612s.048.431.144.607a1.1 1.1 0 0 0 .42.42c.181.101.383.149.612.149q.245 0 .452-.085.261-.106.468-.351l.548.505a1.73 1.73 0 0 1-.649.489 2.169 2.169 0 0 1-.867.165zm6.422 0a2.16 2.16 0 0 1-1.037-.245 1.881 1.881 0 0 1-.718-.681c-.17-.287-.255-.612-.255-.974s.085-.686.255-.974c.176-.287.415-.516.718-.681.309-.165.654-.245 1.037-.245s.724.08 1.027.245c.309.165.548.394.724.681.17.287.261.612.261.974s-.09.686-.261.974a1.863 1.863 0 0 1-.724.681 2.107 2.107 0 0 1-1.027.245zM0 28.256h.846v2.985h1.846v.692H0v-3.676zm8.246 2.889H6.538l-.325.787H5.34l1.639-3.676h.841l1.644 3.676H8.57l-.325-.787zm9.582-2.889-1.202 3.676h-.915l-.809-2.49-.835 2.49h-.91l-1.208-3.676h.883l.83 2.586.867-2.586h.787l.841 2.607.857-2.607h.814zm24.091 3.676-.005-2.203-1.08 1.814h-.383l-1.075-1.766v2.155h-.798v-3.676h.702l1.378 2.288 1.351-2.288h.702l.005 3.676h-.798zm5.889-3.676c.325 0 .606.059.846.165s.426.261.559.463c.128.197.192.436.192.708s-.064.505-.192.708c-.133.202-.319.356-.559.463s-.521.16-.846.16h-.74v1.011h-.851v-3.676h1.591zm7.066 2.889h-1.708l-.325.787h-.873l1.639-3.676h.841l1.644 3.676h-.889l-.33-.787zm7.597-2.889v3.676h-.697l-1.83-2.229v2.229h-.841v-3.676h.702l1.825 2.235v-2.235h.841zm5.262 2.378v1.298h-.851v-1.309l-1.421-2.368h.899l.984 1.633.979-1.633h.841l-1.431 2.378zm-34.433.639c.218 0 .41-.048.585-.149q.128-.069.229-.17.106-.106.181-.25c.101-.176.154-.378.154-.607s-.053-.431-.154-.612q-.08-.144-.197-.255-.09-.09-.213-.16c-.176-.101-.367-.149-.585-.149s-.415.048-.591.149a1.102 1.102 0 0 0-.415.415l-.021.043q-.122.25-.122.569 0 .314.122.569h.005q.005.021.016.037c.101.181.239.319.415.42s.372.149.591.149zm14.46-1.043c.255 0 .452-.059.585-.165q.059-.048.096-.106.101-.149.101-.367 0-.229-.106-.378-.043-.053-.09-.096c-.133-.112-.33-.165-.585-.165h-.692v1.277h.692zm-39.785.271-.58-1.41-.585 1.41h1.165zm46.633 0-.585-1.41-.58 1.41h1.165z"/></symbol></defs></svg>